<?xml version="1.0" encoding="utf-8"?>
<!-- Generator: Adobe Illustrator 25.2.3, SVG Export Plug-In . SVG Version: 6.00 Build 0)  -->
<svg version="1.1" id="레이어_1" xmlns="http://www.w3.org/2000/svg" xmlns:xlink="http://www.w3.org/1999/xlink" x="0px"
	 y="0px" viewBox="0 0 16 16" style="enable-background:new 0 0 16 16;" xml:space="preserve">
<g id="그룹_744">
	<g id="그룹_738" transform="translate(0.117 6.572)">
		<path id="패스_281" d="M8.3,2.5L7.9,2.9C7.8,3,7.8,3.1,7.9,3.1c0,0,0,0,0,0l0.5,0.5c0.2,0.2,0.2,0.4,0,0.6L4.2,8.4
			C4,8.5,3.8,8.5,3.6,8.4L1,5.7C0.8,5.5,0.8,5.3,1,5.1L5.1,1c0.2-0.2,0.4-0.2,0.6,0l0.5,0.5c0.1,0.1,0.1,0.1,0.2,0c0,0,0,0,0,0
			L6.8,1c0.1-0.1,0.1-0.1,0-0.2c0,0,0,0,0,0L6.3,0.4C5.8-0.1,5-0.1,4.5,0.4L0.4,4.5c-0.5,0.5-0.5,1.3,0,1.8L3,9
			c0.5,0.5,1.3,0.5,1.8,0l4.2-4.2C9.4,4.3,9.4,3.5,9,3L8.5,2.5C8.4,2.5,8.3,2.5,8.3,2.5C8.3,2.5,8.3,2.5,8.3,2.5"/>
	</g>
	<g id="그룹_739" transform="translate(0.117 6.572)">
		<path id="패스_282" d="M8.3,2.5L7.9,2.9C7.8,3,7.8,3.1,7.9,3.1c0,0,0,0,0,0l0.5,0.5c0.2,0.2,0.2,0.4,0,0.6L4.2,8.4
			C4,8.5,3.8,8.5,3.6,8.4L1,5.7C0.8,5.5,0.8,5.3,1,5.1L5.1,1c0.2-0.2,0.4-0.2,0.6,0l0.5,0.5c0.1,0.1,0.1,0.1,0.2,0c0,0,0,0,0,0
			L6.8,1c0.1-0.1,0.1-0.1,0-0.2c0,0,0,0,0,0L6.3,0.4C5.8-0.1,5-0.1,4.5,0.4L0.4,4.5c-0.5,0.5-0.5,1.3,0,1.8L3,9
			c0.5,0.5,1.3,0.5,1.8,0l4.2-4.2C9.4,4.3,9.4,3.5,9,3L8.5,2.5C8.4,2.5,8.3,2.5,8.3,2.5z"/>
	</g>
	<g id="그룹_740" transform="translate(6.573 0.117)">
		<path id="패스_283" d="M4.5,0.4L0.4,4.5c-0.5,0.5-0.5,1.3,0,1.8l0.5,0.5C0.9,6.8,1,6.8,1,6.8c0,0,0,0,0,0l0.4-0.4
			c0.1-0.1,0.1-0.1,0-0.2L1,5.7C0.8,5.6,0.8,5.3,1,5.1L5.1,1c0.2-0.2,0.4-0.2,0.6,0l2.6,2.6c0.2,0.2,0.2,0.4,0,0.6L4.2,8.4
			C4,8.5,3.8,8.5,3.6,8.4L3.1,7.9C3.1,7.8,3,7.8,2.9,7.9L2.5,8.3c-0.1,0.1-0.1,0.1,0,0.2L3,8.9c0.5,0.5,1.3,0.5,1.8,0l4.2-4.2
			C9.4,4.3,9.4,3.5,9,3L6.3,0.4C5.8-0.1,5-0.1,4.5,0.4"/>
	</g>
	<g id="그룹_741" transform="translate(6.573 0.117)">
		<path id="패스_284" d="M4.5,0.4L0.4,4.5c-0.5,0.5-0.5,1.3,0,1.8l0.5,0.5C0.9,6.8,1,6.8,1,6.8c0,0,0,0,0,0l0.4-0.4
			c0.1-0.1,0.1-0.1,0-0.2L1,5.7C0.8,5.6,0.8,5.3,1,5.1L5.1,1c0.2-0.2,0.4-0.2,0.6,0l2.6,2.6c0.2,0.2,0.2,0.4,0,0.6L4.2,8.4
			C4,8.5,3.8,8.5,3.6,8.4L3.1,7.9C3.1,7.8,3,7.8,2.9,7.9L2.5,8.3c-0.1,0.1-0.1,0.1,0,0.2L3,8.9c0.5,0.5,1.3,0.5,1.8,0l4.2-4.2
			C9.4,4.3,9.4,3.5,9,3L6.3,0.4C5.8-0.1,5-0.1,4.5,0.4z"/>
	</g>
	<g id="그룹_742" transform="translate(5.533 5.518)">
		<path id="패스_285" d="M0.1,4.8C0.3,5,0.5,5,0.7,4.9l4.2-4.2C5,0.5,5,0.3,4.8,0.1C4.7,0,4.5,0,4.3,0.1L0.1,4.3
			C0,4.5,0,4.7,0.1,4.8"/>
	</g>
	<g id="그룹_743" transform="translate(5.533 5.518)">
		<path id="패스_286" d="M0.1,4.8C0.3,5,0.5,5,0.7,4.9l4.2-4.2C5,0.5,5,0.3,4.8,0.1C4.7,0,4.5,0,4.3,0.1L0.1,4.3
			C0,4.5,0,4.7,0.1,4.8z"/>
	</g>
</g>
</svg>
