<svg xmlns="http://www.w3.org/2000/svg" width="15.059" height="10" viewBox="0 0 15.059 10">
  <g id="non_visioble" data-name="non visioble" transform="translate(888.221 -908.17)">
    <path id="패스_297" data-name="패스 297" d="M-873.252,912.781a14.533,14.533,0,0,0-2.141-2.289,8.336,8.336,0,0,0-5.3-2.322,8.334,8.334,0,0,0-5.3,2.322,14.632,14.632,0,0,0-2.142,2.289l-.089.125v.529l.089.125a14.7,14.7,0,0,0,2.142,2.288,8.334,8.334,0,0,0,5.3,2.322,8.336,8.336,0,0,0,5.3-2.322,14.6,14.6,0,0,0,2.141-2.288l.09-.125v-.529Zm-2.783,2.357a7.592,7.592,0,0,1-4.657,2.075,7.592,7.592,0,0,1-4.656-2.075,14.322,14.322,0,0,1-1.878-1.968,14.4,14.4,0,0,1,1.878-1.967,7.586,7.586,0,0,1,4.656-2.075,7.586,7.586,0,0,1,4.657,2.075,14.3,14.3,0,0,1,1.877,1.967A14.291,14.291,0,0,1-876.035,915.138Z"/>
    <path id="패스_298" data-name="패스 298" d="M-880.692,910.156a3.017,3.017,0,0,0-3.014,3.014,3.017,3.017,0,0,0,3.014,3.014,3.017,3.017,0,0,0,3.014-3.014A3.017,3.017,0,0,0-880.692,910.156Zm0,5.071a2.059,2.059,0,0,1-2.056-2.057,2.058,2.058,0,0,1,2.056-2.056,2.059,2.059,0,0,1,2.057,2.056A2.06,2.06,0,0,1-880.692,915.227Z"/>
  </g>
</svg>
